Normalized EMG Linear Envelopes
nRows=254
nColumns=4

endheader
time	 med_gas_r	  soleus_r	 tib_ant_r	
7.01915	  0.033442	  0.106882	  0.043007	
7.05242	  0.033454	  0.104316	  0.043373	
7.08569	  0.033126	  0.102649	  0.043529	
7.11895	  0.032400	  0.101934	  0.043102	
7.15222	  0.031457	  0.101817	  0.042055	
7.18548	  0.030674	  0.101613	  0.040457	
7.21875	  0.030269	  0.100814	  0.038274	
7.25202	  0.030233	  0.099423	  0.036071	
7.28528	  0.030462	  0.097594	  0.034171	
7.31855	  0.030859	  0.095711	  0.032669	
7.35181	  0.031460	  0.094695	  0.031953	
7.38508	  0.032255	  0.094611	  0.032412	
7.41835	  0.033197	  0.095328	  0.033961	
7.45161	  0.034115	  0.096684	  0.035911	
7.48488	  0.034747	  0.098718	  0.037459	
7.51815	  0.034918	  0.102044	  0.038004	
7.55141	  0.034528	  0.106493	  0.037635	
7.58468	  0.033557	  0.110966	  0.036986	
7.61794	  0.032330	  0.114058	  0.036622	
7.65121	  0.031159	  0.115040	  0.036561	
7.68448	  0.030259	  0.114934	  0.036210	
7.71774	  0.029727	  0.114689	  0.035448	
7.75101	  0.029556	  0.115023	  0.034691	
7.78427	  0.029721	  0.115885	  0.034455	
7.81754	  0.030159	  0.116711	  0.035070	
7.85081	  0.030802	  0.116628	  0.036266	
7.88407	  0.031559	  0.115985	  0.037598	
7.91734	  0.032356	  0.115015	  0.038892	
7.9506	  0.032991	  0.114074	  0.039651	
7.98387	  0.033386	  0.112941	  0.039972	
8.01714	  0.033647	  0.111453	  0.040124	
8.0504	  0.033819	  0.110240	  0.040047	
8.08367	  0.033903	  0.110277	  0.039673	
8.11694	  0.033823	  0.111752	  0.038844	
8.1502	  0.033719	  0.113766	  0.037655	
8.18347	  0.033761	  0.115278	  0.036205	
8.21673	  0.033927	  0.116194	  0.035007	
8.25	  0.033932	  0.117279	  0.034289	
8.28327	  0.033666	  0.118919	  0.034191	
8.31653	  0.033230	  0.120407	  0.035049	
8.3498	  0.032819	  0.121108	  0.036693	
8.38306	  0.032512	  0.121455	  0.038549	
8.41633	  0.032343	  0.122095	  0.040111	
8.4496	  0.032383	  0.122913	  0.040828	
8.48286	  0.032662	  0.123144	  0.041069	
8.51613	  0.033062	  0.122235	  0.041486	
8.5494	  0.033266	  0.120256	  0.042188	
8.58266	  0.033113	  0.118583	  0.042999	
8.61593	  0.032692	  0.117997	  0.043803	
8.64919	  0.032184	  0.118284	  0.044750	
8.68246	  0.031691	  0.118448	  0.045806	
8.71573	  0.031200	  0.117539	  0.046628	
8.74899	  0.030660	  0.115534	  0.046667	
8.78226	  0.030078	  0.112931	  0.045506	
8.81552	  0.029587	  0.110210	  0.043268	
8.84879	  0.029353	  0.108172	  0.040694	
8.88206	  0.029433	  0.107196	  0.038207	
8.91532	  0.029736	  0.106824	  0.036182	
8.94859	  0.030162	  0.106501	  0.034804	
8.98185	  0.030645	  0.105612	  0.034552	
9.01512	  0.031127	  0.104489	  0.035432	
9.04839	  0.031480	  0.104123	  0.036707	
9.08165	  0.031479	  0.104523	  0.037129	
9.11492	  0.031174	  0.105094	  0.036244	
9.14819	  0.030762	  0.106031	  0.034925	
9.18145	  0.030392	  0.108106	  0.034207	
9.21472	  0.030432	  0.111406	  0.034455	
9.24798	  0.031219	  0.114675	  0.035316	
9.28125	  0.033072	  0.116940	  0.035879	
9.31452	  0.036395	  0.118739	  0.036006	
9.34778	  0.041551	  0.120390	  0.036737	
9.38105	  0.048896	  0.120972	  0.038690	
9.41431	  0.058798	  0.119828	  0.041685	
9.44758	  0.071512	  0.117726	  0.044824	
9.48085	  0.086916	  0.115633	  0.046818	
9.51411	  0.103949	  0.113867	  0.047314	
9.54738	  0.120325	  0.112359	  0.046919	
9.58065	  0.132495	  0.111293	  0.045999	
9.61391	  0.135637	  0.111620	  0.044180	
9.64718	  0.128890	  0.113994	  0.040943	
9.68044	  0.116176	  0.118368	  0.036468	
9.71371	  0.102191	  0.124201	  0.031489	
9.74698	  0.090657	  0.131123	  0.026719	
9.78024	  0.083772	  0.139751	  0.022197	
9.81351	  0.082636	  0.150510	  0.017678	
9.84677	  0.088258	  0.163075	  0.013662	
9.88004	  0.101162	  0.177030	  0.011345	
9.91331	  0.121098	  0.192018	  0.011959	
9.94657	  0.146684	  0.207284	  0.016631	
9.97984	  0.175254	  0.221779	  0.026318	
10.0131	  0.204760	  0.233912	  0.041659	
10.0464	  0.234761	  0.243415	  0.062791	
10.0796	  0.264023	  0.249246	  0.089753	
10.1129	  0.290025	  0.250894	  0.123425	
10.1462	  0.309542	  0.249801	  0.163608	
10.1794	  0.321513	  0.247545	  0.208196	
10.2127	  0.327021	  0.243963	  0.252357	
10.246	  0.325839	  0.238067	  0.291739	
10.2792	  0.317470	  0.229573	  0.325306	
10.3125	  0.303874	  0.220647	  0.352689	
10.3458	  0.285474	  0.212494	  0.374940	
10.379	  0.263251	  0.206060	  0.392400	
10.4123	  0.241282	  0.202575	  0.404393	
10.4456	  0.222719	  0.202484	  0.409636	
10.4788	  0.208934	  0.204815	  0.410041	
10.5121	  0.199226	  0.207888	  0.408370	
10.5454	  0.192545	  0.210744	  0.406643	
10.5786	  0.187435	  0.213573	  0.405945	
10.6119	  0.182661	  0.216645	  0.404972	
10.6452	  0.177902	  0.219873	  0.402956	
10.6784	  0.172579	  0.223803	  0.399315	
10.7117	  0.167474	  0.229079	  0.393840	
10.745	  0.163463	  0.235683	  0.388750	
10.7782	  0.160903	  0.242948	  0.387618	
10.8115	  0.160101	  0.250896	  0.392843	
10.8448	  0.161236	  0.258851	  0.404294	
10.878	  0.163498	  0.266283	  0.419531	
10.9113	  0.166009	  0.274435	  0.437955	
10.9446	  0.167962	  0.282721	  0.457403	
10.9778	  0.168945	  0.288300	  0.475094	
11.0111	  0.168972	  0.288885	  0.488992	
11.0444	  0.168203	  0.284453	  0.497522	
11.0776	  0.166501	  0.276379	  0.500794	
11.1109	  0.164062	  0.266428	  0.500541	
11.1442	  0.161471	  0.256729	  0.498523	
11.1774	  0.158790	  0.249281	  0.494687	
11.2107	  0.156391	  0.244793	  0.489815	
11.244	  0.154589	  0.243068	  0.484637	
11.2772	  0.153339	  0.243907	  0.479781	
11.3105	  0.152077	  0.245408	  0.478889	
11.3437	  0.150197	  0.246533	  0.483820	
11.377	  0.147599	  0.248259	  0.493140	
11.4103	  0.145162	  0.250256	  0.503842	
11.4435	  0.143822	  0.250052	  0.513652	
11.4768	  0.144340	  0.246153	  0.521105	
11.5101	  0.146713	  0.239384	  0.527042	
11.5433	  0.150315	  0.230999	  0.532880	
11.5766	  0.154286	  0.222611	  0.538360	
11.6099	  0.158383	  0.215317	  0.545163	
11.6431	  0.161895	  0.208789	  0.554401	
11.6764	  0.164213	  0.204095	  0.566655	
11.7097	  0.164686	  0.201775	  0.582123	
11.7429	  0.163451	  0.201897	  0.602053	
11.7762	  0.162013	  0.204946	  0.623757	
11.8095	  0.161265	  0.209380	  0.641941	
11.8427	  0.161152	  0.213513	  0.652521	
11.876	  0.161017	  0.216073	  0.653371	
11.9093	  0.160128	  0.216955	  0.645952	
11.9425	  0.159337	  0.217592	  0.635201	
11.9758	  0.159837	  0.218781	  0.625351	
12.0091	  0.162455	  0.219933	  0.617841	
12.0423	  0.167058	  0.220134	  0.611243	
12.0756	  0.172740	  0.219450	  0.605259	
12.1089	  0.179039	  0.219124	  0.601850	
12.1421	  0.185745	  0.219737	  0.601304	
12.1754	  0.193055	  0.222545	  0.605495	
12.2087	  0.200376	  0.227076	  0.612784	
12.2419	  0.206575	  0.231912	  0.621953	
12.2752	  0.210835	  0.236011	  0.631675	
12.3085	  0.212923	  0.239092	  0.638450	
12.3417	  0.213110	  0.241909	  0.640385	
12.375	  0.212266	  0.245040	  0.642350	
12.4083	  0.211052	  0.247776	  0.645379	
12.4415	  0.209272	  0.249745	  0.647795	
12.4748	  0.207708	  0.250643	  0.646076	
12.5081	  0.206226	  0.250333	  0.637686	
12.5413	  0.203330	  0.248581	  0.622868	
12.5746	  0.198813	  0.244594	  0.605520	
12.6079	  0.194127	  0.239014	  0.589947	
12.6411	  0.191363	  0.232789	  0.576919	
12.6744	  0.190829	  0.227539	  0.568046	
12.7077	  0.191248	  0.224147	  0.562664	
12.7409	  0.191048	  0.222564	  0.561997	
12.7742	  0.190169	  0.223278	  0.568831	
12.8075	  0.190047	  0.225616	  0.583219	
12.8407	  0.191532	  0.228535	  0.602083	
12.874	  0.194388	  0.230933	  0.621401	
12.9073	  0.198043	  0.232746	  0.640477	
12.9405	  0.202320	  0.234788	  0.657364	
12.9738	  0.206943	  0.237013	  0.668450	
13.0071	  0.210508	  0.239757	  0.669423	
13.0403	  0.211407	  0.243416	  0.658142	
13.0736	  0.209367	  0.248130	  0.636490	
13.1069	  0.205782	  0.253527	  0.610070	
13.1401	  0.202118	  0.258428	  0.584163	
13.1734	  0.199441	  0.262249	  0.562619	
13.2067	  0.197838	  0.264532	  0.546447	
13.2399	  0.197214	  0.263935	  0.535557	
13.2732	  0.197195	  0.260283	  0.529398	
13.3065	  0.196763	  0.254623	  0.528970	
13.3397	  0.195662	  0.247983	  0.533800	
13.373	  0.194413	  0.241228	  0.542577	
13.4062	  0.192939	  0.235139	  0.552408	
13.4395	  0.190394	  0.230344	  0.561000	
13.4728	  0.186740	  0.227106	  0.567100	
13.506	  0.182553	  0.225943	  0.569066	
13.5393	  0.179070	  0.226844	  0.566423	
13.5726	  0.176858	  0.229253	  0.559071	
13.6058	  0.175547	  0.232377	  0.547866	
13.6391	  0.175131	  0.235466	  0.532264	
13.6724	  0.175001	  0.237473	  0.514182	
13.7056	  0.173854	  0.237666	  0.495106	
13.7389	  0.170438	  0.235595	  0.476303	
13.7722	  0.163749	  0.230256	  0.456469	
13.8054	  0.154462	  0.221932	  0.435811	
13.8387	  0.143832	  0.211737	  0.417078	
13.872	  0.133229	  0.199986	  0.401710	
13.9052	  0.123782	  0.186546	  0.391024	
13.9385	  0.116656	  0.173308	  0.385876	
13.9718	  0.111735	  0.161863	  0.385814	
14.005	  0.108025	  0.152710	  0.388827	
14.0383	  0.104815	  0.145855	  0.393681	
14.0716	  0.101852	  0.140642	  0.399380	
14.1048	  0.099542	  0.135945	  0.403211	
14.1381	  0.098369	  0.131480	  0.402752	
14.1714	  0.098595	  0.127527	  0.396482	
14.2046	  0.099625	  0.123796	  0.383028	
14.2379	  0.100425	  0.119799	  0.363820	
14.2712	  0.100027	  0.115243	  0.343317	
14.3044	  0.097439	  0.109624	  0.324661	
14.3377	  0.092919	  0.103208	  0.309413	
14.371	  0.087554	  0.096471	  0.298264	
14.4042	  0.082018	  0.090189	  0.290970	
14.4375	  0.076795	  0.085115	  0.285585	
14.4708	  0.072300	  0.081693	  0.279453	
14.504	  0.068856	  0.079973	  0.271628	
14.5373	  0.066505	  0.079562	  0.263153	
14.5706	  0.065542	  0.079562	  0.254525	
14.6038	  0.066392	  0.079227	  0.245075	
14.6371	  0.069015	  0.078481	  0.234135	
14.6704	  0.073213	  0.077363	  0.222514	
14.7036	  0.078731	  0.076049	  0.210518	
14.7369	  0.085427	  0.074898	  0.199491	
14.7702	  0.092553	  0.074024	  0.189792	
14.8034	  0.098011	  0.073367	  0.179788	
14.8367	  0.099368	  0.072646	  0.168448	
14.87	  0.096346	  0.071885	  0.154807	
14.9032	  0.090517	  0.071355	  0.139152	
14.9365	  0.083321	  0.071043	  0.123386	
14.9698	  0.075757	  0.070782	  0.108752	
15.003	  0.068400	  0.070081	  0.095466	
15.0363	  0.061947	  0.068670	  0.083445	
15.0696	  0.056730	  0.066834	  0.072437	
15.1028	  0.052629	  0.064439	  0.061636	
15.1361	  0.049285	  0.061059	  0.051232	
15.1694	  0.046759	  0.056846	  0.041949	
15.2026	  0.044902	  0.052495	  0.034455	
15.2359	  0.043550	  0.048524	  0.028860	
15.2692	  0.042711	  0.045372	  0.025074	
15.3024	  0.042432	  0.043386	  0.022659	
15.3357	  0.042707	  0.042583	  0.021072	
15.369	  0.043378	  0.042682	  0.020276	
15.4022	  0.044206	  0.043578	  0.020107	
15.4355	  0.044878	  0.045446	  0.020026	
